<mxfile host="app.diagrams.net" agent="Mozilla/5.0 (Windows NT 10.0; Win64; x64) AppleWebKit/537.36 (KHTML, like Gecko) Chrome/130.0.0.0 Safari/537.36" version="24.8.4">
  <diagram name="Crop Recognition System" id="_j_C-YhAm6K_3GjZV8Pd">
    <mxGraphModel dx="2048" dy="725" grid="1" gridSize="10" guides="1" tooltips="1" connect="1" arrows="1" fold="1" page="1" pageScale="1" pageWidth="827" pageHeight="1169" math="0" shadow="0">
      <root>
        <mxCell id="0" />
        <mxCell id="1" parent="0" />
        <mxCell id="kBMecehKwhvIWLQXUeUL-2" value="Sidebar" style="swimlane;whiteSpace=wrap;html=1;strokeColor=#000000;strokeWidth=2;fillColor=#B0E0E6;" vertex="1" parent="1">
          <mxGeometry x="-20" y="20" width="160" height="630" as="geometry" />
        </mxCell>
        <mxCell id="kBMecehKwhvIWLQXUeUL-3" value="Model Use" style="rounded=1;whiteSpace=wrap;html=1;strokeColor=#000000;strokeWidth=1;" vertex="1" parent="kBMecehKwhvIWLQXUeUL-2">
          <mxGeometry x="20" y="70" width="120" height="40" as="geometry" />
        </mxCell>
        <mxCell id="kBMecehKwhvIWLQXUeUL-4" value="Model Training" style="rounded=1;whiteSpace=wrap;html=1;strokeColor=#000000;strokeWidth=1;" vertex="1" parent="kBMecehKwhvIWLQXUeUL-2">
          <mxGeometry x="20" y="160" width="120" height="40" as="geometry" />
        </mxCell>
        <mxCell id="kBMecehKwhvIWLQXUeUL-5" value="Model Testing" style="rounded=1;whiteSpace=wrap;html=1;strokeColor=#000000;strokeWidth=1;" vertex="1" parent="kBMecehKwhvIWLQXUeUL-2">
          <mxGeometry x="20" y="270" width="120" height="40" as="geometry" />
        </mxCell>
        <mxCell id="kBMecehKwhvIWLQXUeUL-6" value="Weights List" style="rounded=1;whiteSpace=wrap;html=1;strokeColor=#000000;strokeWidth=1;" vertex="1" parent="kBMecehKwhvIWLQXUeUL-2">
          <mxGeometry x="20" y="380" width="120" height="40" as="geometry" />
        </mxCell>
        <mxCell id="kBMecehKwhvIWLQXUeUL-7" value="Model List" style="rounded=1;whiteSpace=wrap;html=1;strokeColor=#000000;strokeWidth=1;" vertex="1" parent="kBMecehKwhvIWLQXUeUL-2">
          <mxGeometry x="20" y="480" width="120" height="40" as="geometry" />
        </mxCell>
        <mxCell id="kBMecehKwhvIWLQXUeUL-8" value="Main Panel" style="swimlane;whiteSpace=wrap;html=1;strokeColor=#000000;strokeWidth=2;fillColor=#F0F8FF;" vertex="1" parent="1">
          <mxGeometry x="140" y="20" width="640" height="630" as="geometry" />
        </mxCell>
        <mxCell id="kBMecehKwhvIWLQXUeUL-9" value="Top Panel" style="rounded=1;whiteSpace=wrap;html=1;strokeColor=#000000;strokeWidth=1;fillColor=#D3D3D3;" vertex="1" parent="kBMecehKwhvIWLQXUeUL-8">
          <mxGeometry x="20" y="20" width="600" height="110" as="geometry" />
        </mxCell>
        <mxCell id="kBMecehKwhvIWLQXUeUL-10" value="Model Selection" style="rounded=1;whiteSpace=wrap;html=1;strokeColor=#000000;strokeWidth=1;" vertex="1" parent="kBMecehKwhvIWLQXUeUL-9">
          <mxGeometry x="10" width="180" height="44" as="geometry" />
        </mxCell>
        <mxCell id="kBMecehKwhvIWLQXUeUL-11" value="Weights Selection" style="rounded=1;whiteSpace=wrap;html=1;strokeColor=#000000;strokeWidth=1;" vertex="1" parent="kBMecehKwhvIWLQXUeUL-9">
          <mxGeometry x="200" width="180" height="44" as="geometry" />
        </mxCell>
        <mxCell id="kBMecehKwhvIWLQXUeUL-12" value="Select Image" style="rounded=1;whiteSpace=wrap;html=1;strokeColor=#000000;strokeWidth=1;" vertex="1" parent="kBMecehKwhvIWLQXUeUL-9">
          <mxGeometry x="410" width="160" height="44" as="geometry" />
        </mxCell>
        <mxCell id="kBMecehKwhvIWLQXUeUL-13" value="Please select an image to display" style="rounded=1;whiteSpace=wrap;html=1;strokeColor=#000000;strokeWidth=1;fillColor=#FFFFFF;" vertex="1" parent="kBMecehKwhvIWLQXUeUL-8">
          <mxGeometry x="20" y="140" width="600" height="300" as="geometry" />
        </mxCell>
        <mxCell id="kBMecehKwhvIWLQXUeUL-14" value="Status Panel" style="rounded=1;whiteSpace=wrap;html=1;strokeColor=#000000;strokeWidth=1;fillColor=#D3D3D3;" vertex="1" parent="kBMecehKwhvIWLQXUeUL-8">
          <mxGeometry x="20" y="460" width="600" height="100" as="geometry" />
        </mxCell>
        <mxCell id="kBMecehKwhvIWLQXUeUL-15" value="Crop Type:" style="text;whiteSpace=wrap;html=1;strokeColor=none;" vertex="1" parent="kBMecehKwhvIWLQXUeUL-14">
          <mxGeometry x="10" y="10" width="180" height="20" as="geometry" />
        </mxCell>
        <mxCell id="kBMecehKwhvIWLQXUeUL-16" value="Confidence:" style="text;whiteSpace=wrap;html=1;strokeColor=none;" vertex="1" parent="kBMecehKwhvIWLQXUeUL-14">
          <mxGeometry x="10" y="40" width="180" height="20" as="geometry" />
        </mxCell>
        <mxCell id="kBMecehKwhvIWLQXUeUL-17" value="Prediction Time:" style="text;whiteSpace=wrap;html=1;strokeColor=none;" vertex="1" parent="kBMecehKwhvIWLQXUeUL-14">
          <mxGeometry x="10" y="70" width="180" height="20" as="geometry" />
        </mxCell>
        <mxCell id="kBMecehKwhvIWLQXUeUL-18" value="Start Recognition" style="rounded=1;whiteSpace=wrap;html=1;strokeColor=#000000;strokeWidth=1;" vertex="1" parent="kBMecehKwhvIWLQXUeUL-14">
          <mxGeometry x="440" y="60" width="140" height="40" as="geometry" />
        </mxCell>
      </root>
    </mxGraphModel>
  </diagram>
</mxfile>
